<svg width="20" height="20" viewBox="0 0 20 20" fill="none" xmlns="http://www.w3.org/2000/svg">
<path d="M17.875 0.625H2.125C1.72731 0.625447 1.34604 0.783625 1.06483 1.06483C0.783625 1.34604 0.625447 1.72731 0.625 2.125V17.875C0.625447 18.2727 0.783625 18.654 1.06483 18.9352C1.34604 19.2164 1.72731 19.3746 2.125 19.375H17.875C18.2727 19.3746 18.654 19.2164 18.9352 18.9352C19.2164 18.654 19.3746 18.2727 19.375 17.875V2.125C19.3746 1.72731 19.2164 1.34604 18.9352 1.06483C18.654 0.783625 18.2727 0.625447 17.875 0.625ZM7 14.5001C7 14.699 6.92098 14.8898 6.78033 15.0304C6.63968 15.1711 6.44891 15.2501 6.25 15.2501C6.05109 15.2501 5.86032 15.1711 5.71967 15.0304C5.57902 14.8898 5.5 14.699 5.5 14.5001V8.50009C5.5 8.30118 5.57902 8.11042 5.71967 7.96976C5.86032 7.82911 6.05109 7.75009 6.25 7.75009C6.44891 7.75009 6.63968 7.82911 6.78033 7.96976C6.92098 8.11042 7 8.30118 7 8.50009V14.5001ZM6.25 6.625C6.0275 6.625 5.80999 6.55902 5.62498 6.4354C5.43998 6.31179 5.29578 6.13609 5.21064 5.93052C5.12549 5.72495 5.10321 5.49875 5.14662 5.28052C5.19002 5.06229 5.29717 4.86184 5.4545 4.7045C5.61184 4.54717 5.81229 4.44002 6.03052 4.39662C6.24875 4.35321 6.47495 4.37549 6.68052 4.46064C6.88609 4.54578 7.06179 4.68998 7.1854 4.87498C7.30902 5.05999 7.375 5.2775 7.375 5.5C7.375 5.79837 7.25647 6.08452 7.0455 6.2955C6.83452 6.50647 6.54837 6.625 6.25 6.625ZM15.25 14.5001C15.25 14.699 15.171 14.8898 15.0303 15.0304C14.8897 15.1711 14.6989 15.2501 14.5 15.2501C14.3011 15.2501 14.1103 15.1711 13.9697 15.0304C13.829 14.8898 13.75 14.699 13.75 14.5001V11.1251C13.75 10.6278 13.5525 10.1509 13.2008 9.79927C12.8492 9.44764 12.3723 9.25009 11.875 9.25009C11.3777 9.25009 10.9008 9.44764 10.5492 9.79927C10.1975 10.1509 10 10.6278 10 11.1251V14.5001C10 14.699 9.92098 14.8898 9.78033 15.0304C9.63968 15.1711 9.44891 15.2501 9.25 15.2501C9.05109 15.2501 8.86032 15.1711 8.71967 15.0304C8.57902 14.8898 8.5 14.699 8.5 14.5001V8.50009C8.49986 8.31569 8.56769 8.1377 8.69052 8.00015C8.81335 7.8626 8.98256 7.77515 9.16581 7.75451C9.34906 7.73387 9.53348 7.7815 9.68383 7.88827C9.83418 7.99505 9.9399 8.15349 9.98078 8.33331C10.488 7.98862 11.0796 7.78872 11.6919 7.75511C12.3042 7.7215 12.9141 7.85545 13.456 8.14256C13.9979 8.42967 14.4513 8.85907 14.7674 9.38459C15.0835 9.9101 15.2503 10.5118 15.25 11.1251V14.5001Z" fill="#939596"/>
</svg>
