<svg width="22" height="19" viewBox="0 0 22 19" fill="none" xmlns="http://www.w3.org/2000/svg">
<path d="M21.0306 4.28051L18.2027 7.10839C17.6381 13.6597 12.1131 18.7502 5.50021 18.7502C4.13858 18.7502 3.0164 18.5343 2.16477 18.1084C1.47758 17.7649 1.19605 17.396 1.12621 17.2912C1.06352 17.1972 1.02289 17.0903 1.00734 16.9784C0.991786 16.8665 1.00172 16.7525 1.0364 16.6449C1.07108 16.5374 1.1296 16.4391 1.20761 16.3574C1.28561 16.2756 1.38107 16.2126 1.48686 16.1729C1.51096 16.1638 3.72261 15.3144 5.15202 13.6971C4.26294 13.064 3.48044 12.2933 2.83396 11.4139C1.54883 9.66973 0.189646 6.64085 1.0123 2.11601C1.03678 1.98135 1.09764 1.85595 1.18829 1.7534C1.27895 1.65086 1.39593 1.57507 1.52658 1.53426C1.65722 1.49345 1.79654 1.48916 1.92945 1.52187C2.06235 1.55458 2.18377 1.62304 2.28055 1.71982C2.31365 1.75282 5.43449 4.8296 9.24974 5.82345L9.25021 5.24979C9.25829 4.04898 9.74283 2.90052 10.5973 2.05682C11.4518 1.21312 12.6064 0.743238 13.8072 0.750448C14.5873 0.761237 15.3513 0.974191 16.0245 1.36851C16.6977 1.76282 17.2572 2.32501 17.6481 3.00017H20.5002C20.6485 3.00016 20.7936 3.04415 20.9169 3.12656C21.0402 3.20897 21.1364 3.3261 21.1931 3.46315C21.2499 3.6002 21.2648 3.751 21.2358 3.89649C21.2069 4.04198 21.1354 4.17562 21.0306 4.28051Z" fill="#939596"/>
</svg>
